<svg xmlns="http://www.w3.org/2000/svg" width="54" height="36" viewBox="0 0 54 36">
    <defs>
        <linearGradient id="cnu9mzvlma" x1="25.536%" x2="73.206%" y1="-10.755%" y2="91.262%">
            <stop offset=".272%" stop-color="#FFFF28"/>
            <stop offset="99.98%" stop-color="#35D327"/>
        </linearGradient>
        <linearGradient id="89y2tb9hxb" x1="26.189%" x2="128.024%" y1="5.655%" y2="111.414%">
            <stop offset=".593%" stop-color="#FFFF28"/>
            <stop offset="99.77%" stop-color="#35D327"/>
        </linearGradient>
        <linearGradient id="ss5ubm2tjc" x1="5.066%" x2="192.934%" y1="34.137%" y2="100.46%">
            <stop offset=".272%" stop-color="#FFFF28"/>
            <stop offset="99.77%" stop-color="#35D327"/>
        </linearGradient>
        <linearGradient id="al6gq8l93d" x1="-31.717%" x2="70.217%" y1="-14.139%" y2="65.668%">
            <stop offset=".272%" stop-color="#FFFF28"/>
            <stop offset="99.77%" stop-color="#35D327"/>
        </linearGradient>
        <linearGradient id="pvh2llh6ie" x1="7.27%" x2="59.131%" y1="-101.324%" y2="86.068%">
            <stop offset=".272%" stop-color="#FFFF28"/>
            <stop offset="99.77%" stop-color="#35D327"/>
        </linearGradient>
    </defs>
    <g fill="none" fill-rule="evenodd">
        <g fill-rule="nonzero">
            <g>
                <g>
                    <g>
                        <g>
                            <g>
                                <g>
                                    <path fill="#E6E6E6" d="M18.716 20.207c-1.459-1.46-1.459-3.135 0-4.595l7.973-7.984-6.511-6.52c-1.458-1.461-3.13-1.461-4.588 0L1.105 15.613c-1.459 1.46-1.459 3.135 0 4.595L15.589 34.71c1.458 1.461 3.13 1.461 4.589 0l6.511-6.52-7.973-7.983z" transform="translate(-133 -20) translate(0 -1) translate(20 21) translate(113) translate(.75)"/>
                                    <path fill="#0B1116" d="M52.274 15.612L37.79 1.109c-1.458-1.462-3.13-1.462-4.588 0L18.716 15.612c-1.459 1.46-1.459 3.134 0 4.595L33.2 34.71c1.458 1.461 3.13 1.461 4.589 0l14.486-14.504c1.458-1.46 1.458-3.135 0-4.594" transform="translate(-133 -20) translate(0 -1) translate(20 21) translate(113) translate(.75)"/>
                                    <path fill="#FFF" d="M43.857 16.058L46.368 16.058 46.368 16.88 44.727 16.88 44.727 17.531 46.368 17.531 46.368 18.337 44.727 18.337 44.727 19.715 43.857 19.715zM47.064 16.058L47.894 16.058 48.88 17.426 49.895 16.058 50.691 16.058 50.691 19.715 49.841 19.715 49.841 17.396 48.875 18.693 47.919 17.401 47.919 19.715 47.064 19.715z" transform="translate(-133 -20) translate(0 -1) translate(20 21) translate(113) translate(.75)"/>
                                </g>
                                <path fill="#0B1116" d="M10.866 17.274c.406.407.346.863.033 1.177-.312.312-.764.367-1.168-.041l-2.31-2.312c-.437-.44-.85-.425-1.34.067l-.924.924c-.492.491-.505.904-.067 1.341l2.309 2.315c.407.404.353.857.042 1.171-.313.312-.769.372-1.176-.034l-2.33-2.335c-1.089-1.09-1.108-2.4.113-3.623l.87-.87c1.223-1.223 2.529-1.203 3.618-.112l2.33 2.332zM20.725 4.93c1.088 1.091 1.108 2.4-.115 3.623l-.869.872c-1.22 1.223-2.529 1.204-3.617.111L15.027 8.44c-1.087-1.09-1.107-2.399.115-3.621l.87-.872c1.22-1.223 2.53-1.204 3.616-.113l1.097 1.096zM19.57 6.047L18.515 4.99c-.44-.438-.851-.425-1.342.068l-.923.924c-.49.491-.505.905-.065 1.342L17.24 8.38c.44.44.85.427 1.342-.066l.923-.925c.489-.49.503-.905.066-1.342m-4.341 4.387c1.087 1.092 1.108 2.4-.115 3.622l-.928.932c-.32.318-.59.486-.81.533l.81.809c.404.407.352.857.04 1.17-.313.312-.77.372-1.177-.034L9.53 13.945c-1.088-1.092-1.107-2.4.115-3.622l.87-.871c1.22-1.224 2.528-1.204 3.615-.114l1.099 1.096zm-1.156 1.118l-1.056-1.058c-.439-.438-.85-.426-1.343.067l-.922.924c-.49.49-.503.904-.065 1.341l1.056 1.058c.439.44.847.426 1.34-.066l.923-.925c.49-.49.505-.903.067-1.34" transform="translate(-133 -20) translate(0 -1) translate(20 21) translate(113) translate(.75)"/>
                            </g>
                            <g>
                                <path fill="url(#cnu9mzvlma)" d="M14.252 3.722V.686l-7.276 9.755 1.676 1.188c.827.571 1.32 1.414 1.32 2.255 0 1.424-1.157 2.583-2.58 2.583-1.41 0-2.56-1.141-2.578-2.55h-1.8c.018 2.402 1.976 4.351 4.379 4.351 2.414 0 4.379-1.966 4.379-4.384 0-1.578-.852-3.04-2.223-3.816-.008-.005-.014-.013-.016-.022-.002-.01 0-.02.006-.027l4.713-6.297z" transform="translate(-133 -20) translate(0 -1) translate(20 21) translate(113) translate(.75) translate(28.128 7.732)"/>
                                <path fill="url(#89y2tb9hxb)" d="M9.738 1.824c.006.011.005.024-.003.034L4.577 8.74l1.469 1.04 6.166-8.225L13.351.004H.474v1.802h9.235c.013 0 .024.007.03.018z" transform="translate(-133 -20) translate(0 -1) translate(20 21) translate(113) translate(.75) translate(28.128 7.732)"/>
                                <path fill="url(#ss5ubm2tjc)" d="M7.454 2.974L0.474 2.974 0.474 4.775 6.116 4.775z" transform="translate(-133 -20) translate(0 -1) translate(20 21) translate(113) translate(.75) translate(28.128 7.732)"/>
                                <path fill="url(#al6gq8l93d)" d="M7.383 19.455c-3.057 0-5.545-2.488-5.553-5.55H.014c.008 4.061 3.31 7.363 7.369 7.363 2.097 0 4.098-.898 5.496-2.464l-1.404-1.152c-1.05 1.146-2.54 1.803-4.092 1.803z" transform="translate(-133 -20) translate(0 -1) translate(20 21) translate(113) translate(.75) translate(28.128 7.732)"/>
                                <path fill="url(#pvh2llh6ie)" d="M12.22 8.324l-1.092 1.459c1.149 1.052 1.808 2.548 1.808 4.107 0 1.004-.27 1.987-.78 2.845l1.415 1.16c.772-1.193 1.18-2.577 1.18-4.005 0-2.136-.922-4.162-2.532-5.566z" transform="translate(-133 -20) translate(0 -1) translate(20 21) translate(113) translate(.75) translate(28.128 7.732)"/>
                            </g>
                        </g>
                    </g>
                </g>
            </g>
        </g>
    </g>
</svg>
